<svg viewBox="264.2 371 20.8 18.8"
     width="21" height="18"
     fill="#231F20"
     opacity="0.2"
     xmlns="http://www.w3.org/2000/svg">
  <path d="M283.7,378.2h-3.2l-3.4-6.8c-0.2-0.4-0.6-0.5-1-0.3c-0.4,0.2-0.5,0.6-0.3,1l3.1,6.1h-9.1l3.1-6.1
	c0.2-0.4,0-0.8-0.3-1c-0.4-0.2-0.8,0-1,0.3l-3.4,6.8H265c-0.4,0-0.8,0.3-0.8,0.8c0,0.4,0.3,0.8,0.8,0.8h0.2l0.9,3
	c-0.2,0.1-0.3,0.3-0.3,0.6c0,0.4,0.3,0.7,0.7,0.7l1.7,5.8h12.7l1.7-5.8c0.4,0,0.7-0.3,0.7-0.7c0-0.2-0.1-0.5-0.3-0.6l0.9-3h0.2
	c0.4,0,0.8-0.3,0.8-0.8C284.5,378.5,284.2,378.2,283.7,378.2z M279.6,388.3h-10.4l-1.2-4.3h12.9L279.6,388.3z M281.2,382.5h-13.7
	l-0.8-2.8H282L281.2,382.5z"/>
</svg>
